<svg width="1366" height="272" viewBox="0 0 1366 272" fill="none" xmlns="http://www.w3.org/2000/svg">
<rect width="1366" height="272" fill="white"/>
<path d="M870.358 110.062C867.222 105.025 861.633 102.794 855.937 102.794C847.657 102.794 839.04 106.704 839.04 116.103C839.04 123.371 843.065 126.614 855.715 130.647C868.027 134.564 879.428 138.582 879.428 154.13C879.428 169.678 865.888 177.291 851.575 177.291C842.405 177.291 832.561 174.27 827.187 166.32L835.237 159.719C838.595 165.53 845.311 168.558 852.127 168.558C860.177 168.558 869.354 163.866 869.354 154.797C869.354 145.075 862.753 143.396 848.669 138.689C837.476 135.001 828.981 130.079 828.981 116.885C828.981 101.667 842.068 94.069 855.937 94.069C864.769 94.069 872.252 96.5223 878.071 103.361L870.358 110.062ZM879.75 135.676C879.75 111.741 897.084 94.069 921.127 94.069C945.169 94.069 962.527 111.733 962.527 135.676C962.527 159.619 945.192 177.291 921.127 177.291C897.061 177.291 879.75 159.619 879.75 135.676ZM952.453 135.676C952.453 117.452 939.711 102.794 921.127 102.794C902.543 102.794 889.816 117.452 889.816 135.676C889.816 153.9 902.558 168.566 921.127 168.566C939.695 168.566 952.453 153.915 952.453 135.676ZM966.996 96.0853H976.388V166.557H1013.59V175.282H966.996V96.093V96.0853ZM1022.78 96.0853H1032.19V175.274H1022.78V96.0853ZM1044.15 96.0853H1074.59C1090.14 96.0853 1113.41 106.481 1113.41 135.676C1113.41 164.871 1090.14 175.274 1074.59 175.274H1044.15V96.0853ZM1053.55 166.557H1071.45C1089.58 166.557 1103.34 157.38 1103.34 135.684C1103.34 113.987 1089.58 104.81 1071.45 104.81H1053.55V166.565V166.557ZM1266.31 135.684C1266.31 111.748 1283.66 94.0766 1307.7 94.0766C1331.75 94.0766 1349.1 111.741 1349.1 135.684C1349.1 159.627 1331.75 177.298 1307.7 177.298C1283.66 177.298 1266.31 159.627 1266.31 135.684ZM1339.02 135.684C1339.02 117.46 1326.28 102.801 1307.7 102.801C1289.13 102.801 1276.38 117.46 1276.38 135.684C1276.38 153.907 1289.13 168.574 1307.7 168.574C1326.28 168.574 1339.02 153.923 1339.02 135.684ZM1252.46 96.093V166.565H1239.46L1222.35 138.827C1234.65 136.926 1242.15 129.42 1242.15 117.897C1242.15 98.324 1225.93 96.093 1210.61 96.093H1190.36V166.565H1182.38L1152.42 96.093H1143.59L1108.7 175.282H1119.33L1127.5 155.816L1131.19 147.092L1147.64 108.176H1147.85L1163.52 147.092L1167.09 155.816L1175.14 175.282H1199.76V139.709H1211.82L1233.31 175.282H1261.86V96.093H1252.45H1252.46ZM1208.14 130.992H1199.76V104.81H1212.96C1222.14 104.81 1232.08 106.489 1232.08 117.897C1232.08 130.992 1218.55 130.992 1208.14 130.992H1208.14Z" fill="#005692"/>
<path d="M261.832 46.4974H281.918V50.07H265.673V60.7804H280.776V64.353H265.673V78.9043H261.832V46.4974ZM309.028 66.5457C309.028 73.599 305.723 79.7324 296.807 79.7324C287.891 79.7324 284.586 73.599 284.586 66.5457V46.4974H288.435V65.9937C288.435 71.2147 290.359 76.1597 296.807 76.1597C303.255 76.1597 305.187 71.2147 305.187 65.9937V46.4974H309.035V66.5457H309.028ZM314.394 46.4974H319.247L338.023 73.4074H338.107V46.4974H341.948V78.9043H337.111L318.335 51.9943H318.251V78.9043H314.402V46.4974H314.394ZM346.87 46.4974H359.313C365.684 46.4974 375.199 50.7524 375.199 62.697C375.199 74.6417 365.684 78.9043 359.313 78.9043H346.87V46.4974ZM350.711 75.3317H358.033C365.454 75.3317 371.082 71.575 371.082 62.697C371.082 53.819 365.454 50.07 358.033 50.07H350.711V75.3317ZM389.359 46.4974H392.985L406.755 78.9043H402.277L398.973 70.931H382.773L379.423 78.9043H375.084L389.359 46.4974ZM391.099 51.45H391L384.276 67.366H397.509L391.099 51.45ZM431.211 53.1903C429.295 50.5837 426.22 49.2497 423.1 49.2497C415.886 49.2497 410.749 55.6207 410.749 62.7047C410.749 70.218 415.832 76.1597 423.1 76.1597C427.041 76.1597 430.192 74.565 432.484 71.6287L435.374 74.0667C432.484 77.946 428.29 79.74 423.1 79.74C413.816 79.74 406.624 72.541 406.624 62.7124C406.624 52.8837 413.478 45.6847 423.1 45.6847C427.493 45.6847 431.802 47.2027 434.546 50.76L431.211 53.198V53.1903ZM438.18 46.505H442.021V78.912H438.18V46.505ZM445.64 62.7047C445.64 52.9143 452.732 45.677 462.576 45.677C472.42 45.677 479.511 52.9143 479.511 62.7047C479.511 72.495 472.427 79.7324 462.576 79.7324C452.724 79.7324 445.64 72.5027 445.64 62.7047ZM475.387 62.7047C475.387 55.245 470.166 49.2497 462.576 49.2497C454.986 49.2497 449.765 55.245 449.765 62.7047C449.765 70.1643 454.978 76.1597 462.576 76.1597C470.173 76.1597 475.387 70.1643 475.387 62.7047ZM464.178 37.6117H469.207L462.668 44.205H459.417L464.178 37.6117ZM483.145 46.505H487.998L506.751 73.415H506.835V46.505H510.692V78.912H505.839L487.078 52.002H486.979V78.912H483.138V46.505H483.145Z" fill="#005692"/>
<path d="M261.28 96.0853H284.77C299.306 96.0853 312.516 101.222 312.516 117.782C312.516 134.342 297.75 139.701 286.557 139.701H270.671V175.274H261.28V96.0853ZM270.671 130.984H286.557C295.941 130.984 302.434 126.721 302.434 117.889C302.434 109.057 295.948 104.802 286.557 104.802H270.671V130.984ZM658.329 112.415C653.629 106.052 646.123 102.801 638.518 102.801C620.846 102.801 608.327 118.349 608.327 135.684C608.327 154.022 620.731 168.574 638.518 168.574C648.147 168.574 655.868 164.664 661.449 157.495L668.502 163.422C661.449 172.936 651.153 177.298 638.518 177.298C615.809 177.298 598.253 159.734 598.253 135.684C598.253 111.633 615.027 94.0766 638.518 94.0766C649.259 94.0766 659.778 97.7643 666.486 106.481L658.329 112.415ZM579.983 96.093V161.858H579.776L533.914 96.093H522.061V166.565H471.377V138.375H509.066V129.642H471.377V104.802H511.757V96.0853H367.225C363.062 94.782 358.554 94.069 353.778 94.069C329.728 94.069 312.393 111.733 312.393 135.676C312.393 159.619 329.728 177.291 353.778 177.291C377.828 177.291 395.163 159.619 395.163 135.676C395.163 126.376 392.533 118.027 387.918 111.288V111.304C387.849 111.196 387.787 111.097 387.718 110.989C387.404 110.537 387.067 110.092 386.729 109.648C382.451 104.871 373.742 104.795 373.742 104.795H421.559V175.267H430.966V104.795H461.955V175.267H531.438V109.494H531.668L577.53 175.267H589.382V96.0776H579.975L579.983 96.093ZM385.089 135.684C385.089 153.923 372.339 168.574 353.763 168.574C335.186 168.574 322.437 153.923 322.437 135.684C322.437 117.445 335.179 102.801 353.763 102.801C372.347 102.801 385.089 117.46 385.089 135.684ZM802.654 138.827C814.966 136.926 822.449 129.42 822.449 117.897C822.449 98.324 806.226 96.093 790.908 96.093H770.653V166.565H762.695L732.726 96.093H723.894L692.844 166.565H684.74V96.093H675.349V175.282H699.621L707.794 155.816L711.482 147.092L727.934 108.176H728.149L743.812 147.092L747.385 155.816L755.435 175.282H780.068V139.709H792.15L813.617 175.282H825.155L802.661 138.819L802.654 138.827ZM788.447 130.992H780.06V104.81H793.27C802.431 104.81 812.39 106.489 812.39 117.897C812.39 130.992 798.843 130.992 788.447 130.992Z" fill="black"/>
<path d="M44.5047 134.074C44.497 133.591 44.4663 133.115 44.4663 132.625C44.4663 90.1513 78.8897 55.728 121.371 55.728V28.151C63.6713 28.151 16.9047 74.9177 16.9047 132.625C16.9047 133.115 16.9277 133.591 16.9353 134.074H44.5047Z" fill="#002D59"/>
<path d="M86.9857 179.69C86.702 179.476 86.3953 179.284 86.1117 179.054C60.9113 160.056 55.882 124.222 74.8723 99.0217L58.5117 86.686C32.698 120.918 39.5367 169.601 73.7683 195.43C74.0597 195.637 74.351 195.836 74.6577 196.043L86.9857 179.69Z" fill="#005692"/>
<path d="M155.671 162.793C155.464 163.008 155.28 163.199 155.081 163.399C137.471 180.626 109.227 180.334 91.992 162.716L80.561 173.902C103.967 197.83 142.339 198.244 166.267 174.837C166.466 174.63 166.65 174.431 166.849 174.224L155.671 162.793Z" fill="#0082C5"/>
<path d="M153.647 127.212C153.678 127.388 153.701 127.572 153.732 127.756C155.802 143.826 144.455 158.553 128.386 160.616L129.727 171.058C151.562 168.236 166.98 148.242 164.158 126.399C164.135 126.223 164.097 126.039 164.074 125.855L153.64 127.204L153.647 127.212Z" fill="#00A6E0"/>
<path d="M207.099 131.298C207.107 131.789 205.696 132.272 205.696 132.755C205.696 175.221 171.273 209.652 128.8 209.652V237.221C186.499 237.221 233.273 190.447 233.273 132.755C233.273 132.272 233.243 131.781 233.227 131.298H207.099Z" fill="#002D59"/>
<path d="M163.185 83.0903C163.484 83.2973 163.767 83.5043 164.066 83.719C189.267 102.725 194.288 138.559 175.283 163.759L191.643 176.095C217.472 141.848 210.634 93.172 176.394 67.3583C176.095 67.1437 175.804 66.952 175.513 66.7297L163.177 83.0903H163.185Z" fill="#005692"/>
<path d="M94.499 99.98C94.6907 99.7883 94.8747 99.5737 95.0817 99.3744C112.7 82.1397 140.944 82.454 158.178 100.072L169.609 88.8863C146.195 64.9587 107.816 64.5447 83.9037 87.9433C83.6967 88.1503 83.5127 88.3573 83.3057 88.5567L94.499 99.98Z" fill="#0082C5"/>
<path d="M96.5153 135.569C96.4847 135.377 96.4617 135.208 96.431 135.017C94.361 118.94 105.708 104.22 121.785 102.142L120.443 91.7077C98.6007 94.5367 83.183 114.531 86.0043 136.366C86.0197 136.535 86.0657 136.726 86.0963 136.91L96.523 135.569H96.5153Z" fill="#00A6E0"/>
<path d="M580.75 209.912C578.618 208.946 576.058 208.471 573.068 208.471H559.199V242.174H565.455V232.445H573.06C576.042 232.445 578.603 231.962 580.742 231.003C582.873 230.037 584.522 228.657 585.679 226.863C586.837 225.069 587.412 222.93 587.412 220.462C587.412 217.993 586.837 215.854 585.679 214.06C584.522 212.266 582.881 210.886 580.742 209.92L580.75 209.912ZM579.017 225.391C577.622 226.564 575.544 227.147 572.784 227.147H565.462V213.761H572.784C575.544 213.761 577.622 214.336 579.017 215.494C580.412 216.651 581.11 218.3 581.11 220.454C581.11 222.608 580.412 224.218 579.017 225.391Z" fill="#002D59"/>
<path d="M611.186 217.855C609.116 216.736 606.747 216.168 604.087 216.168C601.427 216.168 599.111 216.728 597.057 217.855C595.002 218.982 593.384 220.523 592.196 222.501C591.008 224.471 590.417 226.748 590.417 229.317C590.417 231.885 591.008 234.116 592.196 236.102C593.384 238.095 595.002 239.659 597.057 240.794C599.111 241.936 601.457 242.503 604.087 242.503C606.717 242.503 609.116 241.936 611.186 240.794C613.256 239.651 614.874 238.087 616.047 236.102C617.22 234.108 617.803 231.847 617.803 229.317C617.803 226.787 617.22 224.441 616.047 222.478C614.874 220.523 613.256 218.982 611.186 217.855ZM610.757 233.602C610.098 234.821 609.193 235.757 608.035 236.393C606.878 237.029 605.567 237.359 604.087 237.359C602.607 237.359 601.35 237.037 600.215 236.393C599.073 235.749 598.168 234.821 597.494 233.602C596.819 232.383 596.482 230.957 596.482 229.317C596.482 227.676 596.819 226.212 597.494 225.008C598.168 223.804 599.073 222.884 600.215 222.24C601.358 221.596 602.661 221.274 604.141 221.274C605.62 221.274 606.885 221.596 608.043 222.24C609.201 222.884 610.105 223.804 610.765 225.008C611.424 226.212 611.754 227.645 611.754 229.317C611.754 230.988 611.424 232.383 610.765 233.602H610.757Z" fill="#002D59"/>
<path d="M628.682 220.224V216.452H622.955V242.158H628.973V229.685C628.973 227.055 629.648 225.069 630.997 223.743C632.346 222.409 634.156 221.742 636.44 221.742C636.663 221.742 636.893 221.75 637.115 221.765C637.337 221.78 637.583 221.819 637.836 221.888V216.161C635.367 216.161 633.305 216.613 631.649 217.51C630.414 218.177 629.425 219.082 628.689 220.216L628.682 220.224Z" fill="#002D59"/>
<path d="M662.476 206.447H656.458V242.174H662.476V206.447Z" fill="#002D59"/>
<path d="M688.206 218.844C686.166 217.065 683.284 216.176 679.565 216.176C677.511 216.176 675.525 216.437 673.616 216.966C671.707 217.495 670.059 218.292 668.679 219.35L671.04 223.728C672.006 222.923 673.179 222.302 674.574 221.849C675.97 221.397 677.388 221.175 678.837 221.175C680.984 221.175 682.594 221.665 683.652 222.647C684.71 223.628 685.239 225 685.239 226.764V227.147H678.592C675.993 227.147 673.907 227.484 672.336 228.159C670.764 228.834 669.629 229.746 668.939 230.904C668.249 232.061 667.904 233.357 667.904 234.806C667.904 236.255 668.295 237.604 669.085 238.777C669.875 239.95 670.986 240.863 672.428 241.522C673.869 242.181 675.556 242.511 677.48 242.511C679.757 242.511 681.643 242.097 683.138 241.261C684.173 240.679 684.978 239.927 685.568 239.023V242.174H691.249V227.101C691.249 223.375 690.23 220.623 688.19 218.844H688.206ZM682.716 237.114C681.543 237.788 680.225 238.126 678.745 238.126C677.265 238.126 676 237.804 675.134 237.16C674.268 236.516 673.831 235.649 673.831 234.561C673.831 233.595 674.183 232.79 674.889 232.13C675.594 231.471 676.974 231.141 679.029 231.141H685.239V234.124C684.725 235.442 683.882 236.431 682.709 237.106L682.716 237.114Z" fill="#002D59"/>
<path d="M731.415 219.649C730.687 218.821 729.859 218.123 728.908 217.594C727.206 216.651 725.282 216.176 723.127 216.176C720.659 216.176 718.435 216.72 716.457 217.809C714.479 218.898 712.938 220.423 711.811 222.386C710.684 224.341 710.125 226.656 710.125 229.317C710.125 231.977 710.684 234.292 711.811 236.247C712.938 238.202 714.479 239.736 716.457 240.847C718.428 241.951 720.651 242.511 723.127 242.511C725.343 242.511 727.298 242.028 729 241.07C730.02 240.495 730.894 239.713 731.645 238.785V242.181H737.372V206.455H731.4V219.657L731.415 219.649ZM730.48 233.602C729.79 234.821 728.877 235.757 727.735 236.393C726.593 237.029 725.305 237.359 723.863 237.359C722.422 237.359 721.126 237.037 719.992 236.393C718.849 235.749 717.937 234.821 717.247 233.602C716.557 232.383 716.212 230.957 716.212 229.317C716.212 227.676 716.557 226.212 717.247 225.008C717.937 223.804 718.849 222.884 719.992 222.24C721.134 221.596 722.422 221.274 723.863 221.274C725.305 221.274 726.6 221.596 727.735 222.24C728.87 222.884 729.79 223.804 730.48 225.008C731.17 226.212 731.515 227.645 731.515 229.317C731.515 230.988 731.17 232.383 730.48 233.602Z" fill="#002D59"/>
<path d="M750.398 216.46H744.379V242.166H750.398V216.46Z" fill="#002D59"/>
<path d="M747.408 204.998C746.281 204.998 745.361 205.343 744.64 206.033C743.919 206.723 743.559 207.582 743.559 208.609C743.559 209.636 743.919 210.457 744.64 211.162C745.361 211.867 746.281 212.22 747.408 212.22C748.535 212.22 749.493 211.86 750.198 211.139C750.904 210.418 751.256 209.529 751.256 208.471C751.256 207.474 750.896 206.654 750.175 205.995C749.455 205.335 748.535 205.006 747.408 205.006V204.998Z" fill="#002D59"/>
<path d="M777.262 219.91C776.403 218.882 775.399 218.054 774.226 217.472C772.493 216.605 770.53 216.168 768.353 216.168C765.915 216.168 763.707 216.682 761.737 217.709C759.759 218.737 758.202 220.178 757.068 222.041C755.925 223.904 755.358 226.066 755.358 228.542C755.358 231.019 755.925 233.227 757.068 235.09C758.21 236.953 759.766 238.402 761.737 239.444C763.707 240.487 765.915 241.008 768.353 241.008C770.538 241.008 772.493 240.571 774.226 239.682C775.268 239.153 776.173 238.417 776.97 237.535V238.938C776.97 241.537 776.311 243.485 774.992 244.788C773.674 246.091 771.604 246.735 768.782 246.735C767.019 246.735 765.279 246.452 763.561 245.892C761.844 245.332 760.426 244.581 759.299 243.653L756.6 248.177C758.041 249.365 759.897 250.27 762.158 250.898C764.42 251.527 766.743 251.834 769.112 251.834C773.605 251.834 777.039 250.73 779.416 248.537C781.793 246.337 782.981 242.91 782.981 238.256V216.444H777.254V219.894L777.262 219.91ZM776.081 232.368C775.422 233.472 774.502 234.338 773.313 234.967C772.125 235.596 770.776 235.902 769.265 235.902C767.755 235.902 766.398 235.588 765.194 234.967C763.991 234.338 763.055 233.472 762.404 232.368C761.744 231.264 761.415 229.984 761.415 228.542C761.415 227.101 761.744 225.821 762.404 224.717C763.063 223.613 763.991 222.762 765.194 222.164C766.398 221.573 767.755 221.274 769.265 221.274C770.776 221.274 772.125 221.573 773.313 222.164C774.502 222.762 775.422 223.605 776.081 224.717C776.74 225.821 777.07 227.101 777.07 228.542C777.07 229.984 776.74 231.264 776.081 232.368Z" fill="#002D59"/>
<path d="M810.067 217.372C808.442 216.567 806.61 216.168 804.555 216.168C802.309 216.168 800.323 216.605 798.606 217.495C797.44 218.093 796.482 218.882 795.692 219.825V216.46H789.965V242.166H795.984V229.163C795.984 227.431 796.283 225.997 796.873 224.855C797.463 223.712 798.307 222.854 799.403 222.279C800.492 221.704 801.749 221.412 803.16 221.412C805.084 221.412 806.587 221.972 807.66 223.099C808.733 224.226 809.27 225.92 809.27 228.205V242.166H815.288V227.431C815.288 224.832 814.821 222.708 813.893 221.052C812.965 219.396 811.685 218.169 810.067 217.372Z" fill="#002D59"/>
<path d="M824.971 204.998C823.844 204.998 822.924 205.343 822.204 206.033C821.483 206.723 821.123 207.582 821.123 208.609C821.123 209.636 821.483 210.457 822.204 211.162C822.924 211.867 823.844 212.22 824.971 212.22C826.098 212.22 827.057 211.86 827.762 211.139C828.467 210.418 828.82 209.529 828.82 208.471C828.82 207.474 828.46 206.654 827.739 205.995C827.018 205.335 826.098 205.006 824.971 205.006V204.998Z" fill="#002D59"/>
<path d="M827.954 216.46H821.935V242.166H827.954V216.46Z" fill="#002D59"/>
<path d="M854.319 219.649C853.591 218.821 852.763 218.123 851.812 217.594C850.11 216.651 848.186 216.176 846.032 216.176C843.563 216.176 841.34 216.72 839.362 217.809C837.384 218.898 835.843 220.423 834.716 222.386C833.589 224.341 833.029 226.656 833.029 229.317C833.029 231.977 833.589 234.292 834.716 236.247C835.843 238.202 837.384 239.736 839.362 240.847C841.332 241.951 843.555 242.511 846.032 242.511C848.247 242.511 850.202 242.028 851.904 241.07C852.924 240.495 853.798 239.713 854.549 238.785V242.181H860.276V206.455H854.304V219.657L854.319 219.649ZM853.384 233.602C852.694 234.821 851.782 235.757 850.639 236.393C849.497 237.029 848.209 237.359 846.768 237.359C845.326 237.359 844.031 237.037 842.896 236.393C841.754 235.749 840.841 234.821 840.151 233.602C839.461 232.383 839.116 230.957 839.116 229.317C839.116 227.676 839.461 226.212 840.151 225.008C840.841 223.804 841.754 222.884 842.896 222.24C844.038 221.596 845.326 221.274 846.768 221.274C848.209 221.274 849.505 221.596 850.639 222.24C851.774 222.884 852.694 223.804 853.384 225.008C854.074 226.212 854.419 227.645 854.419 229.317C854.419 230.988 854.074 232.383 853.384 233.602Z" fill="#002D59"/>
<path d="M885.983 218.844C883.943 217.065 881.061 216.176 877.342 216.176C875.288 216.176 873.302 216.437 871.393 216.966C869.484 217.495 867.836 218.292 866.456 219.35L868.817 223.728C869.783 222.923 870.956 222.302 872.351 221.849C873.747 221.397 875.165 221.175 876.614 221.175C878.761 221.175 880.371 221.665 881.429 222.647C882.487 223.628 883.016 225 883.016 226.764V227.147H876.369C873.77 227.147 871.684 227.484 870.113 228.159C868.541 228.834 867.406 229.746 866.716 230.904C866.026 232.061 865.681 233.357 865.681 234.806C865.681 236.255 866.072 237.604 866.862 238.777C867.652 239.95 868.763 240.863 870.205 241.522C871.646 242.181 873.333 242.511 875.257 242.511C877.534 242.511 879.42 242.097 880.915 241.261C881.95 240.679 882.755 239.927 883.345 239.023V242.174H889.026V227.101C889.026 223.375 888.007 220.623 885.967 218.844H885.983ZM880.493 237.114C879.32 237.788 878.002 238.126 876.522 238.126C875.042 238.126 873.777 237.804 872.911 237.16C872.045 236.516 871.608 235.649 871.608 234.561C871.608 233.595 871.96 232.79 872.666 232.13C873.371 231.471 874.751 231.141 876.806 231.141H883.016V234.124C882.502 235.442 881.659 236.431 880.486 237.106L880.493 237.114Z" fill="#002D59"/>
<path d="M915.277 219.649C914.549 218.821 913.721 218.123 912.77 217.594C911.068 216.651 909.144 216.176 906.989 216.176C904.521 216.176 902.297 216.72 900.319 217.809C898.341 218.898 896.8 220.423 895.673 222.386C894.546 224.341 893.987 226.656 893.987 229.317C893.987 231.977 894.546 234.292 895.673 236.247C896.8 238.202 898.341 239.736 900.319 240.847C902.29 241.951 904.513 242.511 906.989 242.511C909.205 242.511 911.16 242.028 912.862 241.07C913.882 240.495 914.756 239.713 915.507 238.785V242.181H921.234V206.455H915.262V219.657L915.277 219.649ZM914.342 233.602C913.652 234.821 912.739 235.757 911.597 236.393C910.455 237.029 909.167 237.359 907.725 237.359C906.284 237.359 904.988 237.037 903.854 236.393C902.711 235.749 901.799 234.821 901.109 233.602C900.419 232.383 900.074 230.957 900.074 229.317C900.074 227.676 900.419 226.212 901.109 225.008C901.799 223.804 902.711 222.884 903.854 222.24C904.996 221.596 906.284 221.274 907.725 221.274C909.167 221.274 910.462 221.596 911.597 222.24C912.732 222.884 913.652 223.804 914.342 225.008C915.032 226.212 915.377 227.645 915.377 229.317C915.377 230.988 915.032 232.383 914.342 233.602Z" fill="#002D59"/>
<path d="M961.645 219.649C960.917 218.821 960.089 218.123 959.138 217.594C957.436 216.651 955.512 216.176 953.357 216.176C950.889 216.176 948.665 216.72 946.687 217.809C944.709 218.898 943.168 220.423 942.041 222.386C940.914 224.341 940.355 226.656 940.355 229.317C940.355 231.977 940.914 234.292 942.041 236.247C943.168 238.202 944.709 239.736 946.687 240.847C948.658 241.951 950.881 242.511 953.357 242.511C955.573 242.511 957.528 242.028 959.23 241.07C960.25 240.495 961.124 239.713 961.875 238.785V242.181H967.602V206.455H961.63V219.657L961.645 219.649ZM960.71 233.602C960.02 234.821 959.107 235.757 957.965 236.393C956.823 237.029 955.535 237.359 954.093 237.359C952.652 237.359 951.356 237.037 950.222 236.393C949.079 235.749 948.167 234.821 947.477 233.602C946.787 232.383 946.442 230.957 946.442 229.317C946.442 227.676 946.787 226.212 947.477 225.008C948.167 223.804 949.079 222.884 950.222 222.24C951.364 221.596 952.652 221.274 954.093 221.274C955.535 221.274 956.83 221.596 957.965 222.24C959.1 222.884 960.02 223.804 960.71 225.008C961.4 226.212 961.745 227.645 961.745 229.317C961.745 230.988 961.4 232.383 960.71 233.602Z" fill="#002D59"/>
<path d="M992.764 217.809C990.809 216.72 988.578 216.176 986.071 216.176C983.564 216.176 981.218 216.736 979.209 217.863C977.201 218.99 975.629 220.531 974.494 222.509C973.352 224.479 972.785 226.756 972.785 229.324C972.785 231.893 973.367 234.124 974.54 236.109C975.713 238.103 977.362 239.667 979.501 240.801C981.632 241.944 984.131 242.511 986.991 242.511C989.237 242.511 991.238 242.151 992.986 241.43C994.734 240.709 996.191 239.674 997.341 238.325L994.113 234.614C993.216 235.58 992.189 236.286 991.031 236.73C989.874 237.183 988.578 237.405 987.129 237.405C985.458 237.405 983.986 237.083 982.698 236.439C981.41 235.795 980.421 234.883 979.715 233.694C979.271 232.951 978.987 232.123 978.818 231.241H998.974C999.005 230.95 999.028 230.651 999.043 230.329C999.058 230.007 999.066 229.715 999.066 229.462C999.066 226.764 998.506 224.425 997.379 222.432C996.252 220.446 994.711 218.905 992.756 217.809H992.764ZM979.593 224.625C980.221 223.482 981.088 222.593 982.192 221.957C983.296 221.32 984.591 220.991 986.063 220.991C987.535 220.991 988.785 221.313 989.889 221.957C990.993 222.601 991.867 223.482 992.511 224.602C992.963 225.391 993.239 226.281 993.354 227.247H978.749C978.887 226.281 979.156 225.399 979.585 224.625H979.593Z" fill="#002D59"/>
<path d="M1025.88 222.24C1027.07 221.596 1028.41 221.274 1029.88 221.274C1031.16 221.274 1032.35 221.566 1033.47 222.141C1034.58 222.716 1035.51 223.62 1036.28 224.839L1040.9 222.141C1039.91 220.186 1038.46 218.698 1036.55 217.686C1034.64 216.674 1032.43 216.168 1029.93 216.168C1027.23 216.168 1024.83 216.728 1022.73 217.855C1020.63 218.982 1018.98 220.523 1017.8 222.501C1016.61 224.471 1016.02 226.748 1016.02 229.317C1016.02 231.885 1016.61 234.116 1017.8 236.102C1018.98 238.095 1020.62 239.659 1022.73 240.794C1024.83 241.936 1027.23 242.503 1029.93 242.503C1032.44 242.503 1034.64 241.982 1036.55 240.939C1038.46 239.897 1039.91 238.409 1040.9 236.485L1036.28 233.786C1035.51 235.005 1034.57 235.902 1033.47 236.485C1032.36 237.06 1031.17 237.351 1029.88 237.351C1028.4 237.351 1027.07 237.029 1025.88 236.385C1024.7 235.741 1023.77 234.821 1023.09 233.618C1022.42 232.414 1022.08 230.98 1022.08 229.309C1022.08 227.638 1022.42 226.204 1023.09 225C1023.77 223.797 1024.7 222.877 1025.88 222.233V222.24Z" fill="#002D59"/>
<path d="M1064.26 218.844C1062.22 217.065 1059.34 216.176 1055.62 216.176C1053.57 216.176 1051.58 216.437 1049.67 216.966C1047.76 217.495 1046.12 218.292 1044.74 219.35L1047.1 223.728C1048.06 222.923 1049.24 222.302 1050.63 221.849C1052.03 221.397 1053.45 221.175 1054.89 221.175C1057.04 221.175 1058.65 221.665 1059.71 222.647C1060.77 223.628 1061.3 225 1061.3 226.764V227.147H1054.65C1052.05 227.147 1049.96 227.484 1048.39 228.159C1046.82 228.834 1045.69 229.746 1045 230.904C1044.31 232.061 1043.96 233.357 1043.96 234.806C1043.96 236.255 1044.35 237.604 1045.14 238.777C1045.93 239.95 1047.04 240.863 1048.49 241.522C1049.93 242.181 1051.61 242.511 1053.54 242.511C1055.81 242.511 1057.7 242.097 1059.2 241.261C1060.23 240.679 1061.04 239.927 1061.63 239.023V242.174H1067.31V227.101C1067.31 223.375 1066.29 220.623 1064.25 218.844H1064.26ZM1058.77 237.114C1057.6 237.788 1056.28 238.126 1054.8 238.126C1053.32 238.126 1052.06 237.804 1051.19 237.16C1050.33 236.516 1049.89 235.649 1049.89 234.561C1049.89 233.595 1050.24 232.79 1050.95 232.13C1051.65 231.471 1053.03 231.141 1055.09 231.141H1061.3V234.124C1060.78 235.442 1059.94 236.431 1058.77 237.106L1058.77 237.114Z" fill="#002D59"/>
<path d="M1093.57 219.649C1092.84 218.821 1092.01 218.123 1091.06 217.594C1089.36 216.651 1087.43 216.176 1085.28 216.176C1082.81 216.176 1080.59 216.72 1078.61 217.809C1076.63 218.898 1075.09 220.423 1073.96 222.386C1072.83 224.341 1072.27 226.656 1072.27 229.317C1072.27 231.977 1072.83 234.292 1073.96 236.247C1075.09 238.202 1076.63 239.736 1078.61 240.847C1080.58 241.951 1082.8 242.511 1085.28 242.511C1087.49 242.511 1089.45 242.028 1091.15 241.07C1092.17 240.495 1093.04 239.713 1093.8 238.785V242.181H1099.52V206.455H1093.55V219.657L1093.57 219.649ZM1092.63 233.602C1091.94 234.821 1091.03 235.757 1089.89 236.393C1088.74 237.029 1087.45 237.359 1086.01 237.359C1084.57 237.359 1083.28 237.037 1082.14 236.393C1081 235.749 1080.09 234.821 1079.4 233.602C1078.71 232.383 1078.36 230.957 1078.36 229.317C1078.36 227.676 1078.71 226.212 1079.4 225.008C1080.09 223.804 1081 222.884 1082.14 222.24C1083.28 221.596 1084.57 221.274 1086.01 221.274C1087.45 221.274 1088.75 221.596 1089.89 222.24C1091.02 222.884 1091.94 223.804 1092.63 225.008C1093.32 226.212 1093.66 227.645 1093.66 229.317C1093.66 230.988 1093.32 232.383 1092.63 233.602Z" fill="#002D59"/>
<path d="M1125.22 218.844C1123.18 217.065 1120.3 216.176 1116.58 216.176C1114.53 216.176 1112.54 216.437 1110.63 216.966C1108.72 217.495 1107.07 218.292 1105.69 219.35L1108.06 223.728C1109.02 222.923 1110.19 222.302 1111.59 221.849C1112.99 221.397 1114.4 221.175 1115.85 221.175C1118 221.175 1119.61 221.665 1120.67 222.647C1121.72 223.628 1122.25 225 1122.25 226.764V227.147H1115.61C1113.01 227.147 1110.92 227.484 1109.35 228.159C1107.78 228.834 1106.64 229.746 1105.95 230.904C1105.26 232.061 1104.92 233.357 1104.92 234.806C1104.92 236.255 1105.31 237.604 1106.1 238.777C1106.89 239.95 1108 240.863 1109.44 241.522C1110.88 242.181 1112.57 242.511 1114.5 242.511C1116.77 242.511 1118.66 242.097 1120.15 241.261C1121.19 240.679 1121.99 239.927 1122.58 239.023V242.174H1128.26V227.101C1128.26 223.375 1127.25 220.623 1125.21 218.844H1125.22ZM1119.73 237.114C1118.56 237.788 1117.24 238.126 1115.76 238.126C1114.28 238.126 1113.02 237.804 1112.15 237.16C1111.28 236.516 1110.85 235.649 1110.85 234.561C1110.85 233.595 1111.2 232.79 1111.9 232.13C1112.61 231.471 1113.99 231.141 1116.04 231.141H1122.25V234.124C1121.74 235.442 1120.9 236.431 1119.72 237.106L1119.73 237.114Z" fill="#002D59"/>
<path d="M1170.24 217.809C1168.3 216.72 1166.06 216.176 1163.52 216.176C1161.34 216.176 1159.4 216.651 1157.7 217.594C1156.65 218.169 1155.77 218.959 1155 219.902V216.467H1149.27V251.519H1155.29V238.992C1156.03 239.828 1156.86 240.533 1157.82 241.07C1159.54 242.036 1161.44 242.511 1163.52 242.511C1166.06 242.511 1168.3 241.967 1170.24 240.87C1172.18 239.782 1173.72 238.248 1174.86 236.27C1176.01 234.3 1176.57 231.977 1176.57 229.317C1176.57 226.656 1176.01 224.341 1174.86 222.386C1173.72 220.431 1172.18 218.905 1170.24 217.809ZM1169.44 233.602C1168.77 234.821 1167.86 235.757 1166.72 236.393C1165.58 237.037 1164.29 237.359 1162.84 237.359C1161.39 237.359 1160.1 237.037 1158.94 236.393C1157.78 235.749 1156.87 234.821 1156.19 233.602C1155.52 232.383 1155.18 230.957 1155.18 229.317C1155.18 227.676 1155.52 226.212 1156.19 225.008C1156.87 223.804 1157.78 222.884 1158.94 222.24C1160.1 221.596 1161.39 221.274 1162.84 221.274C1164.29 221.274 1165.58 221.596 1166.72 222.24C1167.86 222.884 1168.77 223.804 1169.44 225.008C1170.12 226.212 1170.45 227.645 1170.45 229.317C1170.45 230.988 1170.12 232.383 1169.44 233.602Z" fill="#002D59"/>
<path d="M1199.91 217.809C1197.95 216.72 1195.72 216.176 1193.22 216.176C1190.71 216.176 1188.36 216.736 1186.36 217.863C1184.35 218.99 1182.77 220.531 1181.64 222.509C1180.5 224.479 1179.93 226.756 1179.93 229.324C1179.93 231.893 1180.51 234.124 1181.69 236.109C1182.86 238.103 1184.51 239.667 1186.65 240.801C1188.79 241.936 1191.28 242.511 1194.14 242.511C1196.38 242.511 1198.38 242.151 1200.13 241.43C1201.88 240.709 1203.34 239.674 1204.49 238.325L1201.26 234.614C1200.36 235.58 1199.33 236.286 1198.18 236.73C1197.02 237.183 1195.72 237.405 1194.27 237.405C1192.6 237.405 1191.13 237.083 1189.84 236.439C1188.56 235.795 1187.57 234.883 1186.86 233.694C1186.42 232.951 1186.13 232.123 1185.96 231.241H1206.12C1206.15 230.95 1206.17 230.651 1206.19 230.329C1206.2 230.007 1206.21 229.715 1206.21 229.462C1206.21 226.764 1205.65 224.425 1204.52 222.432C1203.4 220.446 1201.86 218.905 1199.9 217.809H1199.91ZM1186.74 224.625C1187.37 223.482 1188.23 222.593 1189.34 221.957C1190.44 221.32 1191.74 220.991 1193.21 220.991C1194.68 220.991 1195.93 221.313 1197.03 221.957C1198.14 222.601 1199.01 223.482 1199.66 224.602C1200.11 225.391 1200.38 226.281 1200.5 227.247H1185.89C1186.03 226.281 1186.3 225.399 1186.73 224.625H1186.74Z" fill="#002D59"/>
<path d="M1217 220.232V216.46H1211.27V242.166H1217.29V229.692C1217.29 227.063 1217.96 225.077 1219.31 223.751C1220.66 222.424 1222.47 221.75 1224.76 221.75C1224.98 221.75 1225.21 221.757 1225.43 221.773C1225.65 221.788 1225.9 221.826 1226.15 221.895V216.168C1223.68 216.168 1221.62 216.621 1219.97 217.518C1218.73 218.185 1217.75 219.089 1217.01 220.224L1217 220.232Z" fill="#002D59"/>
<path d="M1247.67 228.956C1246.72 228.458 1245.69 228.067 1244.57 227.776C1243.44 227.484 1242.31 227.27 1241.17 227.124C1240.03 226.978 1238.99 226.794 1238.07 226.572C1237.14 226.35 1236.38 226.043 1235.81 225.66C1235.23 225.276 1234.94 224.694 1234.94 223.927C1234.94 223.091 1235.38 222.401 1236.27 221.857C1237.15 221.313 1238.5 221.037 1240.34 221.037C1241.55 221.037 1242.78 221.175 1244.02 221.443C1245.25 221.719 1246.48 222.217 1247.7 222.961L1250 218.384C1248.85 217.679 1247.39 217.134 1245.63 216.743C1243.86 216.36 1242.11 216.168 1240.37 216.168C1238.07 216.168 1236.07 216.498 1234.38 217.157C1232.69 217.817 1231.39 218.744 1230.45 219.948C1229.52 221.152 1229.06 222.57 1229.06 224.211C1229.06 225.69 1229.35 226.879 1229.92 227.776C1230.5 228.673 1231.26 229.386 1232.19 229.915C1233.11 230.444 1234.15 230.842 1235.29 231.118C1236.43 231.394 1237.57 231.609 1238.71 231.77C1239.85 231.931 1240.89 232.107 1241.82 232.299C1242.74 232.491 1243.5 232.774 1244.08 233.142C1244.65 233.51 1244.94 234.047 1244.94 234.752C1244.94 235.619 1244.51 236.309 1243.67 236.822C1242.82 237.336 1241.45 237.597 1239.55 237.597C1237.95 237.597 1236.34 237.359 1234.74 236.876C1233.14 236.393 1231.76 235.787 1230.6 235.044L1228.29 239.621C1229.45 240.426 1231.01 241.108 1232.98 241.668C1234.95 242.227 1237.02 242.511 1239.17 242.511C1241.58 242.511 1243.65 242.181 1245.38 241.522C1247.11 240.863 1248.46 239.943 1249.4 238.754C1250.34 237.566 1250.82 236.171 1250.82 234.568C1250.82 233.127 1250.53 231.954 1249.95 231.057C1249.38 230.16 1248.61 229.462 1247.67 228.964L1247.67 228.956Z" fill="#002D59"/>
<path d="M1274.38 217.855C1272.31 216.736 1269.94 216.168 1267.28 216.168C1264.62 216.168 1262.3 216.728 1260.25 217.855C1258.19 218.982 1256.57 220.523 1255.39 222.501C1254.2 224.471 1253.61 226.748 1253.61 229.317C1253.61 231.885 1254.2 234.116 1255.39 236.102C1256.57 238.095 1258.19 239.659 1260.25 240.794C1262.3 241.936 1264.65 242.503 1267.28 242.503C1269.91 242.503 1272.31 241.936 1274.38 240.794C1276.45 239.651 1278.06 238.087 1279.24 236.102C1280.41 234.108 1280.99 231.847 1280.99 229.317C1280.99 226.787 1280.4 224.441 1279.24 222.478C1278.06 220.523 1276.45 218.982 1274.38 217.855ZM1273.94 233.602C1273.28 234.821 1272.37 235.757 1271.22 236.393C1270.06 237.029 1268.75 237.359 1267.27 237.359C1265.79 237.359 1264.53 237.037 1263.4 236.393C1262.26 235.749 1261.35 234.821 1260.68 233.602C1260 232.383 1259.66 230.957 1259.66 229.317C1259.66 227.676 1260 226.212 1260.68 225.008C1261.35 223.804 1262.26 222.884 1263.4 222.24C1264.54 221.596 1265.84 221.274 1267.32 221.274C1268.8 221.274 1270.07 221.596 1271.22 222.24C1272.38 222.884 1273.29 223.804 1273.95 225.008C1274.61 226.212 1274.94 227.645 1274.94 229.317C1274.94 230.988 1274.61 232.383 1273.95 233.602H1273.94Z" fill="#002D59"/>
<path d="M1306.24 217.372C1304.61 216.567 1302.78 216.168 1300.73 216.168C1298.48 216.168 1296.49 216.605 1294.78 217.495C1293.61 218.093 1292.65 218.882 1291.86 219.825V216.46H1286.14V242.166H1292.16V229.163C1292.16 227.431 1292.45 225.997 1293.04 224.855C1293.63 223.712 1294.48 222.854 1295.57 222.279C1296.66 221.704 1297.92 221.412 1299.33 221.412C1301.26 221.412 1302.76 221.972 1303.83 223.099C1304.9 224.226 1305.44 225.92 1305.44 228.205V242.166H1311.46V227.431C1311.46 224.832 1310.99 222.708 1310.06 221.052C1309.14 219.396 1307.86 218.169 1306.24 217.372Z" fill="#002D59"/>
<path d="M1336.74 218.844C1334.7 217.065 1331.81 216.176 1328.1 216.176C1326.04 216.176 1324.06 216.437 1322.15 216.966C1320.24 217.495 1318.59 218.292 1317.21 219.35L1319.57 223.728C1320.54 222.923 1321.71 222.302 1323.11 221.849C1324.5 221.397 1325.92 221.175 1327.37 221.175C1329.51 221.175 1331.12 221.665 1332.18 222.647C1333.24 223.628 1333.77 225 1333.77 226.764V227.147H1327.12C1324.52 227.147 1322.44 227.484 1320.87 228.159C1319.29 228.834 1318.16 229.746 1317.47 230.904C1316.78 232.061 1316.44 233.357 1316.44 234.806C1316.44 236.255 1316.83 237.604 1317.62 238.777C1318.41 239.95 1319.52 240.863 1320.96 241.522C1322.4 242.181 1324.09 242.511 1326.01 242.511C1328.29 242.511 1330.17 242.097 1331.67 241.261C1332.7 240.679 1333.51 239.927 1334.1 239.023V242.174H1339.78V227.101C1339.78 223.375 1338.76 220.623 1336.72 218.844H1336.74ZM1331.25 237.114C1330.07 237.788 1328.76 238.126 1327.28 238.126C1325.8 238.126 1324.53 237.804 1323.67 237.16C1322.8 236.516 1322.36 235.649 1322.36 234.561C1322.36 233.595 1322.71 232.79 1323.42 232.13C1324.12 231.471 1325.5 231.141 1327.56 231.141H1333.77V234.124C1333.26 235.442 1332.41 236.431 1331.24 237.106L1331.25 237.114Z" fill="#002D59"/>
</svg>
