<?xml version="1.0" encoding="UTF-8"?>
<svg id="Layer_1" data-name="Layer 1" xmlns="http://www.w3.org/2000/svg" viewBox="0 0 1920 1080">
  <defs>
    <style>
      .cls-1 {
        fill: #005692;
      }

      .cls-2 {
        fill: #002d59;
      }

      .cls-3 {
        fill: #00a6e0;
      }

      .cls-4 {
        fill: #0082c5;
      }
    </style>
  </defs>
  <g>
    <path class="cls-2" d="m826.63,631.19c-2.78-1.26-6.12-1.88-10.02-1.88h-18.09v43.96h8.16v-12.69h9.92c3.89,0,7.23-.63,10.02-1.88,2.78-1.26,4.93-3.06,6.44-5.4,1.51-2.34,2.26-5.13,2.26-8.35s-.75-6.01-2.26-8.35c-1.51-2.34-3.65-4.14-6.44-5.4Zm-2.26,20.19c-1.82,1.53-4.53,2.29-8.13,2.29h-9.55v-17.46h9.55c3.6,0,6.31.75,8.13,2.26,1.82,1.51,2.73,3.66,2.73,6.47s-.91,4.91-2.73,6.44Z"/>
    <path class="cls-2" d="m866.33,641.55c-2.7-1.46-5.79-2.2-9.26-2.2s-6.49.73-9.17,2.2c-2.68,1.47-4.79,3.48-6.34,6.06-1.55,2.57-2.32,5.54-2.32,8.89s.77,6.26,2.32,8.85c1.55,2.6,3.66,4.64,6.34,6.12,2.68,1.49,5.74,2.23,9.17,2.23s6.56-.74,9.26-2.23c2.7-1.49,4.81-3.53,6.34-6.12,1.53-2.6,2.29-5.55,2.29-8.85s-.76-6.36-2.29-8.92c-1.53-2.55-3.64-4.56-6.34-6.03Zm-.56,20.54c-.86,1.59-2.04,2.81-3.55,3.64s-3.22,1.26-5.15,1.26-3.57-.42-5.05-1.26c-1.49-.84-2.67-2.05-3.55-3.64-.88-1.59-1.32-3.45-1.32-5.59s.44-4.05,1.32-5.62,2.06-2.77,3.55-3.61c1.49-.84,3.19-1.26,5.12-1.26s3.58.42,5.09,1.26,2.69,2.04,3.55,3.61c.86,1.57,1.29,3.44,1.29,5.62s-.43,4-1.29,5.59Z"/>
    <path class="cls-2" d="m889.15,644.64v-4.92h-7.47v33.53h7.85v-16.27c0-3.43.88-6.02,2.64-7.75,1.76-1.74,4.12-2.61,7.1-2.61.29,0,.59.01.88.03.29.02.61.07.94.16v-7.47c-3.22,0-5.91.59-8.07,1.76-1.61.87-2.9,2.05-3.86,3.53Z"/>
    <rect class="cls-2" x="925.38" y="626.67" width="7.85" height="46.6"/>
    <path class="cls-2" d="m966.79,642.84c-2.66-2.32-6.42-3.48-11.27-3.48-2.68,0-5.27.34-7.76,1.03-2.49.69-4.64,1.73-6.44,3.11l3.08,5.71c1.26-1.05,2.79-1.86,4.61-2.45,1.82-.59,3.67-.88,5.56-.88,2.8,0,4.9.64,6.28,1.92s2.07,3.07,2.07,5.37v.5h-8.67c-3.39,0-6.11.44-8.16,1.32-2.05.88-3.53,2.07-4.43,3.58-.9,1.51-1.35,3.2-1.35,5.09s.51,3.65,1.54,5.18c1.03,1.53,2.48,2.72,4.36,3.58,1.88.86,4.08,1.29,6.59,1.29,2.97,0,5.43-.54,7.38-1.63,1.35-.76,2.4-1.74,3.17-2.92v4.11h7.41v-19.66c0-4.86-1.33-8.45-3.99-10.77Zm-7.16,23.83c-1.53.88-3.25,1.32-5.18,1.32s-3.58-.42-4.71-1.26c-1.13-.84-1.7-1.97-1.7-3.39,0-1.26.46-2.31,1.38-3.17s2.72-1.29,5.4-1.29h8.1v3.89c-.67,1.72-1.77,3.01-3.3,3.89Z"/>
    <path class="cls-2" d="m1023.15,643.89c-.95-1.08-2.03-1.99-3.27-2.68-2.22-1.23-4.73-1.85-7.54-1.85-3.22,0-6.12.71-8.7,2.13-2.58,1.42-4.59,3.41-6.06,5.97-1.47,2.55-2.2,5.57-2.2,9.04s.73,6.49,2.2,9.04c1.47,2.55,3.48,4.55,6.06,6,2.57,1.44,5.47,2.17,8.7,2.17,2.89,0,5.44-.63,7.66-1.88,1.33-.75,2.47-1.77,3.45-2.98v4.43h7.47v-46.6h-7.79v17.22Zm-1.22,18.2c-.9,1.59-2.09,2.81-3.58,3.64s-3.17,1.26-5.05,1.26-3.57-.42-5.05-1.26c-1.49-.84-2.68-2.05-3.58-3.64-.9-1.59-1.35-3.45-1.35-5.59s.45-4.05,1.35-5.62,2.09-2.77,3.58-3.61c1.49-.84,3.17-1.26,5.05-1.26s3.57.42,5.05,1.26,2.68,2.04,3.58,3.61,1.35,3.44,1.35,5.62-.45,4-1.35,5.59Z"/>
    <rect class="cls-2" x="1040.06" y="639.73" width="7.85" height="33.53"/>
    <path class="cls-2" d="m1044.01,624.78c-1.47,0-2.67.45-3.61,1.35s-1.41,2.02-1.41,3.36.47,2.41,1.41,3.33,2.14,1.38,3.61,1.38,2.72-.47,3.64-1.41c.92-.94,1.38-2.1,1.38-3.48,0-1.3-.47-2.37-1.41-3.23-.94-.86-2.14-1.29-3.61-1.29Z"/>
    <path class="cls-2" d="m1082.95,644.23c-1.12-1.34-2.43-2.42-3.96-3.18-2.26-1.13-4.82-1.7-7.66-1.7-3.18,0-6.06.67-8.63,2.01-2.58,1.34-4.61,3.22-6.09,5.65-1.49,2.43-2.23,5.25-2.23,8.48s.74,6.11,2.23,8.54c1.49,2.43,3.52,4.32,6.09,5.68,2.57,1.36,5.45,2.04,8.63,2.04,2.85,0,5.4-.57,7.66-1.73,1.36-.69,2.54-1.65,3.58-2.8v1.83c0,3.39-.86,5.93-2.58,7.63s-4.42,2.54-8.1,2.54c-2.3,0-4.57-.37-6.81-1.1s-4.09-1.71-5.56-2.92l-3.52,5.9c1.88,1.55,4.3,2.73,7.25,3.55,2.95.82,5.98,1.22,9.07,1.22,5.86,0,10.34-1.44,13.44-4.3,3.1-2.87,4.65-7.34,4.65-13.41v-28.45h-7.47v4.5Zm-1.54,16.25c-.86,1.44-2.06,2.57-3.61,3.39-1.55.82-3.31,1.22-5.28,1.22s-3.74-.41-5.31-1.22c-1.57-.82-2.79-1.95-3.64-3.39-.86-1.44-1.29-3.11-1.29-4.99s.43-3.55,1.29-4.99c.86-1.44,2.07-2.55,3.64-3.33,1.57-.77,3.34-1.16,5.31-1.16s3.73.39,5.28,1.16c1.55.78,2.75,1.88,3.61,3.33.86,1.44,1.29,3.11,1.29,4.99s-.43,3.55-1.29,4.99Z"/>
    <path class="cls-2" d="m1125.74,640.92c-2.12-1.05-4.51-1.57-7.19-1.57-2.93,0-5.52.57-7.76,1.73-1.52.78-2.77,1.81-3.8,3.04v-4.39h-7.47v33.53h7.85v-16.96c0-2.26.39-4.13,1.16-5.62s1.87-2.61,3.3-3.36c1.42-.75,3.06-1.13,4.9-1.13,2.51,0,4.47.73,5.87,2.2,1.4,1.47,2.1,3.68,2.1,6.66v18.21h7.85v-19.22c0-3.39-.61-6.16-1.82-8.32-1.21-2.16-2.88-3.76-4.99-4.8Z"/>
    <path class="cls-2" d="m1145.18,624.78c-1.47,0-2.67.45-3.61,1.35s-1.41,2.02-1.41,3.36.47,2.41,1.41,3.33,2.14,1.38,3.61,1.38,2.72-.47,3.64-1.41c.92-.94,1.38-2.1,1.38-3.48,0-1.3-.47-2.37-1.41-3.23-.94-.86-2.14-1.29-3.61-1.29Z"/>
    <rect class="cls-2" x="1141.22" y="639.73" width="7.85" height="33.53"/>
    <path class="cls-2" d="m1183.46,643.89c-.95-1.08-2.03-1.99-3.27-2.68-2.22-1.23-4.73-1.85-7.54-1.85-3.22,0-6.12.71-8.7,2.13-2.58,1.42-4.59,3.41-6.06,5.97-1.47,2.55-2.2,5.57-2.2,9.04s.73,6.49,2.2,9.04c1.47,2.55,3.48,4.55,6.06,6,2.57,1.44,5.47,2.17,8.7,2.17,2.89,0,5.44-.63,7.66-1.88,1.33-.75,2.47-1.77,3.45-2.98v4.43h7.47v-46.6h-7.79v17.22Zm-1.22,18.2c-.9,1.59-2.09,2.81-3.58,3.64s-3.17,1.26-5.05,1.26-3.57-.42-5.05-1.26c-1.49-.84-2.68-2.05-3.58-3.64-.9-1.59-1.35-3.45-1.35-5.59s.45-4.05,1.35-5.62,2.09-2.77,3.58-3.61c1.49-.84,3.17-1.26,5.05-1.26s3.57.42,5.05,1.26,2.68,2.04,3.58,3.61,1.35,3.44,1.35,5.62-.45,4-1.35,5.59Z"/>
    <path class="cls-2" d="m1224.76,642.84c-2.66-2.32-6.42-3.48-11.27-3.48-2.68,0-5.27.34-7.76,1.03-2.49.69-4.64,1.73-6.44,3.11l3.08,5.71c1.26-1.05,2.79-1.86,4.61-2.45,1.82-.59,3.67-.88,5.56-.88,2.8,0,4.9.64,6.28,1.92s2.07,3.07,2.07,5.37v.5h-8.67c-3.39,0-6.11.44-8.16,1.32-2.05.88-3.53,2.07-4.43,3.58-.9,1.51-1.35,3.2-1.35,5.09s.51,3.65,1.54,5.18c1.03,1.53,2.48,2.72,4.36,3.58,1.88.86,4.08,1.29,6.59,1.29,2.97,0,5.43-.54,7.38-1.63,1.35-.76,2.4-1.74,3.17-2.92v4.11h7.41v-19.66c0-4.86-1.33-8.45-3.99-10.77Zm-7.16,23.83c-1.53.88-3.25,1.32-5.18,1.32s-3.58-.42-4.71-1.26c-1.13-.84-1.7-1.97-1.7-3.39,0-1.26.46-2.31,1.38-3.17s2.72-1.29,5.4-1.29h8.1v3.89c-.67,1.72-1.77,3.01-3.3,3.89Z"/>
    <path class="cls-2" d="m1262.97,643.89c-.95-1.08-2.03-1.99-3.27-2.68-2.22-1.23-4.73-1.85-7.54-1.85-3.22,0-6.12.71-8.7,2.13-2.58,1.42-4.59,3.41-6.06,5.97-1.47,2.55-2.2,5.57-2.2,9.04s.73,6.49,2.2,9.04c1.47,2.55,3.48,4.55,6.06,6,2.57,1.44,5.47,2.17,8.7,2.17,2.89,0,5.44-.63,7.66-1.88,1.33-.75,2.47-1.77,3.45-2.98v4.43h7.47v-46.6h-7.79v17.22Zm-1.22,18.2c-.9,1.59-2.09,2.81-3.58,3.64s-3.17,1.26-5.05,1.26-3.57-.42-5.05-1.26c-1.49-.84-2.68-2.05-3.58-3.64-.9-1.59-1.35-3.45-1.35-5.59s.45-4.05,1.35-5.62,2.09-2.77,3.58-3.61c1.49-.84,3.17-1.26,5.05-1.26s3.57.42,5.05,1.26,2.68,2.04,3.58,3.61,1.35,3.44,1.35,5.62-.45,4-1.35,5.59Z"/>
    <path class="cls-2" d="m1323.45,643.89c-.95-1.08-2.03-1.99-3.27-2.68-2.22-1.23-4.73-1.85-7.54-1.85-3.22,0-6.12.71-8.7,2.13-2.58,1.42-4.59,3.41-6.06,5.97-1.47,2.55-2.2,5.57-2.2,9.04s.73,6.49,2.2,9.04c1.47,2.55,3.48,4.55,6.06,6,2.57,1.44,5.47,2.17,8.7,2.17,2.89,0,5.44-.63,7.66-1.88,1.33-.75,2.47-1.77,3.45-2.98v4.43h7.47v-46.6h-7.79v17.22Zm-1.22,18.2c-.9,1.59-2.09,2.81-3.58,3.64s-3.17,1.26-5.05,1.26-3.57-.42-5.05-1.26c-1.49-.84-2.68-2.05-3.58-3.64-.9-1.59-1.35-3.45-1.35-5.59s.45-4.05,1.35-5.62,2.09-2.77,3.58-3.61c1.49-.84,3.17-1.26,5.05-1.26s3.57.42,5.05,1.26,2.68,2.04,3.58,3.61,1.35,3.44,1.35,5.62-.45,4-1.35,5.59Z"/>
    <path class="cls-2" d="m1364.04,641.49c-2.55-1.42-5.46-2.13-8.73-2.13s-6.33.73-8.95,2.2c-2.62,1.47-4.67,3.48-6.15,6.06-1.49,2.57-2.23,5.54-2.23,8.89s.76,6.26,2.29,8.85c1.53,2.6,3.68,4.64,6.47,6.12,2.78,1.49,6.04,2.23,9.77,2.23,2.93,0,5.54-.47,7.82-1.41,2.28-.94,4.18-2.29,5.68-4.05l-4.21-4.84c-1.17,1.26-2.51,2.18-4.02,2.76-1.51.59-3.2.88-5.09.88-2.18,0-4.1-.42-5.78-1.26s-2.97-2.03-3.89-3.58c-.58-.97-.95-2.05-1.17-3.2h26.29c.04-.38.07-.77.09-1.19s.03-.8.03-1.13c0-3.52-.73-6.57-2.2-9.17-1.47-2.59-3.48-4.6-6.03-6.03Zm-17.18,8.89c.82-1.49,1.95-2.65,3.39-3.48s3.13-1.26,5.05-1.26,3.55.42,4.99,1.26,2.58,1.99,3.42,3.45c.59,1.03.95,2.19,1.1,3.45h-19.05c.18-1.26.53-2.41,1.09-3.42Z"/>
    <path class="cls-2" d="m1407.24,647.27c1.55-.84,3.29-1.26,5.21-1.26,1.67,0,3.23.38,4.68,1.13,1.45.75,2.67,1.93,3.67,3.52l6.03-3.52c-1.3-2.55-3.19-4.49-5.68-5.81-2.49-1.32-5.37-1.98-8.63-1.98-3.52,0-6.65.73-9.39,2.2-2.74,1.47-4.89,3.48-6.44,6.06-1.55,2.57-2.32,5.54-2.32,8.89s.77,6.26,2.32,8.85c1.55,2.6,3.69,4.64,6.44,6.12,2.74,1.49,5.87,2.23,9.39,2.23,3.27,0,6.14-.68,8.63-2.04,2.49-1.36,4.38-3.3,5.68-5.81l-6.03-3.52c-1.01,1.59-2.23,2.76-3.67,3.52-1.44.75-3,1.13-4.68,1.13-1.93,0-3.66-.42-5.21-1.26s-2.76-2.04-3.64-3.61c-.88-1.57-1.32-3.44-1.32-5.62s.44-4.05,1.32-5.62c.88-1.57,2.09-2.77,3.64-3.61Z"/>
    <path class="cls-2" d="m1457.3,642.84c-2.66-2.32-6.42-3.48-11.27-3.48-2.68,0-5.27.34-7.76,1.03-2.49.69-4.64,1.73-6.44,3.11l3.08,5.71c1.26-1.05,2.79-1.86,4.61-2.45,1.82-.59,3.67-.88,5.56-.88,2.8,0,4.9.64,6.28,1.92s2.07,3.07,2.07,5.37v.5h-8.67c-3.39,0-6.11.44-8.16,1.32-2.05.88-3.53,2.07-4.43,3.58-.9,1.51-1.35,3.2-1.35,5.09s.51,3.65,1.54,5.18c1.03,1.53,2.48,2.72,4.36,3.58,1.88.86,4.08,1.29,6.59,1.29,2.97,0,5.43-.54,7.38-1.63,1.35-.76,2.4-1.74,3.17-2.92v4.11h7.41v-19.66c0-4.86-1.33-8.45-3.99-10.77Zm-7.16,23.83c-1.53.88-3.25,1.32-5.18,1.32s-3.58-.42-4.71-1.26c-1.13-.84-1.7-1.97-1.7-3.39,0-1.26.46-2.31,1.38-3.17s2.72-1.29,5.4-1.29h8.1v3.89c-.67,1.72-1.77,3.01-3.3,3.89Z"/>
    <path class="cls-2" d="m1495.52,643.89c-.95-1.08-2.03-1.99-3.27-2.68-2.22-1.23-4.73-1.85-7.54-1.85-3.22,0-6.12.71-8.7,2.13-2.58,1.42-4.59,3.41-6.06,5.97-1.47,2.55-2.2,5.57-2.2,9.04s.73,6.49,2.2,9.04c1.47,2.55,3.48,4.55,6.06,6,2.57,1.44,5.47,2.17,8.7,2.17,2.89,0,5.44-.63,7.66-1.88,1.33-.75,2.47-1.77,3.45-2.98v4.43h7.47v-46.6h-7.79v17.22Zm-1.22,18.2c-.9,1.59-2.09,2.81-3.58,3.64s-3.17,1.26-5.05,1.26-3.57-.42-5.05-1.26c-1.49-.84-2.68-2.05-3.58-3.64-.9-1.59-1.35-3.45-1.35-5.59s.45-4.05,1.35-5.62,2.09-2.77,3.58-3.61c1.49-.84,3.17-1.26,5.05-1.26s3.57.42,5.05,1.26,2.68,2.04,3.58,3.61,1.35,3.44,1.35,5.62-.45,4-1.35,5.59Z"/>
    <path class="cls-2" d="m1536.81,642.84c-2.66-2.32-6.42-3.48-11.27-3.48-2.68,0-5.27.34-7.76,1.03-2.49.69-4.64,1.73-6.44,3.11l3.08,5.71c1.26-1.05,2.79-1.86,4.61-2.45,1.82-.59,3.67-.88,5.56-.88,2.8,0,4.9.64,6.28,1.92s2.07,3.07,2.07,5.37v.5h-8.67c-3.39,0-6.11.44-8.16,1.32-2.05.88-3.53,2.07-4.43,3.58-.9,1.51-1.35,3.2-1.35,5.09s.51,3.65,1.54,5.18c1.03,1.53,2.48,2.72,4.36,3.58,1.88.86,4.08,1.29,6.59,1.29,2.97,0,5.43-.54,7.38-1.63,1.35-.76,2.4-1.74,3.17-2.92v4.11h7.41v-19.66c0-4.86-1.33-8.45-3.99-10.77Zm-7.16,23.83c-1.53.88-3.25,1.32-5.18,1.32s-3.58-.42-4.71-1.26c-1.13-.84-1.7-1.97-1.7-3.39,0-1.26.46-2.31,1.38-3.17s2.72-1.29,5.4-1.29h8.1v3.89c-.67,1.72-1.77,3.01-3.3,3.89Z"/>
    <path class="cls-2" d="m1595.53,641.49c-2.53-1.42-5.45-2.13-8.76-2.13-2.85,0-5.38.62-7.6,1.85-1.36.75-2.51,1.78-3.52,3.01v-4.48h-7.47v45.72h7.85v-16.34c.96,1.09,2.05,2.01,3.3,2.71,2.24,1.26,4.72,1.88,7.44,1.88,3.31,0,6.23-.71,8.76-2.14,2.53-1.42,4.54-3.42,6.03-6,1.49-2.57,2.23-5.6,2.23-9.07s-.74-6.49-2.23-9.04c-1.49-2.55-3.5-4.54-6.03-5.97Zm-1.04,20.6c-.88,1.59-2.06,2.81-3.55,3.64-1.49.84-3.17,1.26-5.06,1.26s-3.58-.42-5.09-1.26-2.7-2.05-3.58-3.64c-.88-1.59-1.32-3.45-1.32-5.59s.44-4.05,1.32-5.62,2.07-2.77,3.58-3.61,3.2-1.26,5.09-1.26,3.57.42,5.06,1.26c1.49.84,2.67,2.04,3.55,3.61s1.32,3.44,1.32,5.62-.44,4-1.32,5.59Z"/>
    <path class="cls-2" d="m1634.23,641.49c-2.55-1.42-5.46-2.13-8.73-2.13s-6.33.73-8.95,2.2c-2.62,1.47-4.67,3.48-6.15,6.06-1.49,2.57-2.23,5.54-2.23,8.89s.76,6.26,2.29,8.85c1.53,2.6,3.68,4.64,6.47,6.12s6.04,2.23,9.77,2.23c2.93,0,5.54-.47,7.82-1.41,2.28-.94,4.18-2.29,5.68-4.05l-4.21-4.84c-1.17,1.26-2.51,2.18-4.02,2.76-1.51.59-3.2.88-5.09.88-2.18,0-4.1-.42-5.78-1.26s-2.97-2.03-3.89-3.58c-.58-.97-.95-2.05-1.17-3.2h26.29c.04-.38.07-.77.09-1.19s.03-.8.03-1.13c0-3.52-.73-6.57-2.2-9.17-1.47-2.59-3.48-4.6-6.03-6.03Zm-17.18,8.89c.82-1.49,1.95-2.65,3.39-3.48s3.13-1.26,5.05-1.26,3.55.42,4.99,1.26,2.58,1.99,3.42,3.45c.59,1.03.95,2.19,1.1,3.45h-19.05c.18-1.26.53-2.41,1.09-3.42Z"/>
    <path class="cls-2" d="m1656.52,644.65v-4.92h-7.47v33.53h7.85v-16.27c0-3.43.88-6.02,2.64-7.75s4.12-2.61,7.1-2.61c.29,0,.59.01.88.03.29.02.61.07.94.16v-7.47c-3.22,0-5.91.59-8.07,1.76-1.61.87-2.89,2.05-3.86,3.53Z"/>
    <path class="cls-2" d="m1696.53,656.03c-1.24-.65-2.59-1.16-4.05-1.54-1.47-.38-2.94-.66-4.43-.85-1.49-.19-2.84-.43-4.05-.72s-2.2-.69-2.95-1.19c-.75-.5-1.13-1.26-1.13-2.26,0-1.09.57-1.99,1.73-2.7,1.15-.71,2.92-1.07,5.31-1.07,1.59,0,3.19.18,4.8.53,1.61.36,3.21,1.01,4.8,1.98l3.01-5.97c-1.51-.92-3.41-1.63-5.71-2.14-2.3-.5-4.58-.75-6.85-.75-3.01,0-5.62.43-7.82,1.29-2.2.86-3.9,2.07-5.12,3.64s-1.82,3.42-1.82,5.56c0,1.93.38,3.48,1.13,4.65.75,1.17,1.74,2.1,2.95,2.79,1.21.69,2.56,1.21,4.05,1.57,1.49.36,2.97.64,4.46.85,1.49.21,2.84.44,4.05.69s2.2.62,2.95,1.1c.75.48,1.13,1.18,1.13,2.1,0,1.13-.56,2.03-1.66,2.7-1.11.67-2.9,1.01-5.37,1.01-2.09,0-4.19-.31-6.28-.94-2.09-.63-3.89-1.42-5.4-2.39l-3.01,5.97c1.51,1.05,3.55,1.94,6.12,2.67,2.57.73,5.26,1.1,8.07,1.1,3.14,0,5.84-.43,8.1-1.29s4.01-2.06,5.24-3.61c1.23-1.55,1.85-3.37,1.85-5.46,0-1.88-.38-3.41-1.13-4.58-.75-1.17-1.75-2.08-2.98-2.73Z"/>
    <path class="cls-2" d="m1731.36,641.55c-2.7-1.46-5.79-2.2-9.26-2.2s-6.49.73-9.17,2.2c-2.68,1.47-4.79,3.48-6.34,6.06-1.55,2.57-2.32,5.54-2.32,8.89s.77,6.26,2.32,8.85c1.55,2.6,3.66,4.64,6.34,6.12,2.68,1.49,5.74,2.23,9.17,2.23s6.56-.74,9.26-2.23c2.7-1.49,4.81-3.53,6.34-6.12,1.53-2.6,2.29-5.55,2.29-8.85s-.77-6.36-2.29-8.92c-1.53-2.55-3.64-4.56-6.34-6.03Zm-.57,20.54c-.86,1.59-2.04,2.81-3.55,3.64s-3.22,1.26-5.15,1.26-3.57-.42-5.05-1.26c-1.49-.84-2.67-2.05-3.55-3.64-.88-1.59-1.32-3.45-1.32-5.59s.44-4.05,1.32-5.62c.88-1.57,2.06-2.77,3.55-3.61,1.49-.84,3.19-1.26,5.12-1.26s3.58.42,5.09,1.26,2.69,2.04,3.55,3.61c.86,1.57,1.29,3.44,1.29,5.62s-.43,4-1.29,5.59Z"/>
    <path class="cls-2" d="m1772.92,640.92c-2.12-1.05-4.51-1.57-7.19-1.57-2.93,0-5.52.57-7.76,1.73-1.52.78-2.77,1.81-3.8,3.04v-4.39h-7.47v33.53h7.85v-16.96c0-2.26.39-4.13,1.16-5.62s1.87-2.61,3.3-3.36c1.42-.75,3.06-1.13,4.9-1.13,2.51,0,4.47.73,5.87,2.2,1.4,1.47,2.1,3.68,2.1,6.66v18.21h7.85v-19.22c0-3.39-.61-6.16-1.82-8.32-1.21-2.16-2.88-3.76-4.99-4.8Z"/>
    <path class="cls-2" d="m1812.7,642.84c-2.66-2.32-6.42-3.48-11.27-3.48-2.68,0-5.27.34-7.76,1.03-2.49.69-4.64,1.73-6.44,3.11l3.08,5.71c1.26-1.05,2.79-1.86,4.61-2.45,1.82-.59,3.67-.88,5.56-.88,2.8,0,4.9.64,6.28,1.92s2.07,3.07,2.07,5.37v.5h-8.67c-3.39,0-6.11.44-8.16,1.32-2.05.88-3.53,2.07-4.43,3.58-.9,1.51-1.35,3.2-1.35,5.09s.51,3.65,1.54,5.18c1.03,1.53,2.48,2.72,4.36,3.58,1.88.86,4.08,1.29,6.59,1.29,2.97,0,5.43-.54,7.38-1.63,1.35-.76,2.4-1.74,3.17-2.92v4.11h7.41v-19.66c0-4.86-1.33-8.45-3.99-10.77Zm-7.16,23.83c-1.53.88-3.25,1.32-5.18,1.32s-3.58-.42-4.71-1.26c-1.13-.84-1.7-1.97-1.7-3.39,0-1.26.46-2.31,1.38-3.17s2.72-1.29,5.4-1.29h8.1v3.89c-.67,1.72-1.77,3.01-3.3,3.89Z"/>
  </g>
  <g>
    <path class="cls-2" d="m127.18,532.27c-.01-.63-.05-1.25-.05-1.89,0-55.4,44.9-100.3,100.31-100.3v-35.97c-75.26,0-136.26,61-136.26,136.27,0,.64.03,1.26.04,1.89h35.96Z"/>
    <path class="cls-1" d="m182.59,591.77c-.37-.28-.77-.53-1.14-.83-32.87-24.78-39.43-71.52-14.66-104.39l-21.34-16.09c-33.67,44.65-24.75,108.15,19.9,141.84.38.27.76.53,1.16.8l16.08-21.33Z"/>
    <path class="cls-4" d="m272.18,569.73c-.27.28-.51.53-.77.79-22.97,22.47-59.81,22.09-82.29-.89l-14.91,14.59c30.53,31.21,80.58,31.75,111.79,1.22.26-.27.5-.53.76-.8l-14.58-14.91Z"/>
    <path class="cls-3" d="m269.54,523.32c.04.23.07.47.11.71,2.7,20.96-12.1,40.17-33.06,42.86l1.75,13.62c28.48-3.68,48.59-29.76,44.91-58.25-.03-.23-.08-.47-.11-.71l-13.61,1.76Z"/>
    <path class="cls-2" d="m339.26,528.65c.01.64-1.83,1.27-1.83,1.9,0,55.39-44.9,100.3-100.3,100.3v35.96c75.26,0,136.27-61.01,136.27-136.26,0-.63-.04-1.27-.06-1.9h-34.08Z"/>
    <path class="cls-1" d="m281.98,465.77c.39.27.76.54,1.15.82,32.87,24.79,39.42,71.53,14.63,104.4l21.34,16.09c33.69-44.67,24.77-108.16-19.89-141.83-.39-.28-.77-.53-1.15-.82l-16.09,21.34Z"/>
    <path class="cls-4" d="m192.39,487.8c.25-.25.49-.53.76-.79,22.98-22.48,59.82-22.07,82.3.91l14.91-14.59c-30.54-31.21-80.6-31.75-111.79-1.23-.27.27-.51.54-.78.8l14.6,14.9Z"/>
    <path class="cls-3" d="m195.02,534.22c-.04-.25-.07-.47-.11-.72-2.7-20.97,12.1-40.17,33.07-42.88l-1.75-13.61c-28.49,3.69-48.6,29.77-44.92,58.25.02.22.08.47.12.71l13.6-1.75Z"/>
  </g>
  <g>
    <path class="cls-1" d="m1204.38,500.95c-4.09-6.57-11.38-9.48-18.81-9.48-10.8,0-22.04,5.1-22.04,17.36,0,9.48,5.25,13.71,21.75,18.97,16.06,5.11,30.93,10.35,30.93,30.63s-17.66,30.21-36.33,30.21c-11.96,0-24.8-3.94-31.81-14.31l10.5-8.61c4.38,7.58,13.14,11.53,22.03,11.53,10.5,0,22.47-6.12,22.47-17.95,0-12.68-8.61-14.87-26.98-21.01-14.6-4.81-25.68-11.23-25.68-28.44,0-19.85,17.07-29.76,35.16-29.76,11.52,0,21.28,3.2,28.87,12.12l-10.06,8.74Zm12.25,33.41c0-31.22,22.61-54.27,53.97-54.27s54,23.04,54,54.27-22.61,54.28-54,54.28-53.97-23.05-53.97-54.28Zm94.83,0c0-23.77-16.62-42.89-40.86-42.89s-40.84,19.12-40.84,42.89,16.62,42.9,40.84,42.9,40.86-19.11,40.86-42.9Zm18.97-51.64h12.25v91.92h48.52v11.38h-60.77v-103.29Zm72.76,0h12.27v103.29h-12.27v-103.29Zm27.88,0h39.7c20.28,0,50.63,13.56,50.63,51.64s-30.35,51.65-50.63,51.65h-39.7v-103.29Zm12.25,91.92h23.35c23.65,0,41.6-11.97,41.6-40.27s-17.95-40.27-41.6-40.27h-23.35v80.55Zm277.52-40.27c0-31.22,22.63-54.27,53.99-54.27s53.99,23.04,53.99,54.27-22.63,54.28-53.99,54.28-53.99-23.05-53.99-54.28Zm94.84,0c0-23.77-16.62-42.89-40.85-42.89s-40.85,19.12-40.85,42.89,16.62,42.9,40.85,42.9,40.85-19.11,40.85-42.9Zm-112.9-51.64v91.92h-16.96l-22.32-36.18c16.05-2.48,25.83-12.27,25.83-27.3,0-25.53-21.16-28.44-41.14-28.44h-26.41v91.92h-10.41l-39.08-91.92h-11.52l-45.51,103.29h13.86l10.66-25.39,4.81-11.38,21.46-50.76h.28l20.43,50.76,4.66,11.38,10.5,25.39h32.11v-46.4h15.74l28.02,46.4h37.24v-103.29h-12.27Zm-57.81,45.52h-10.93v-34.15h17.21c11.97,0,24.94,2.19,24.94,17.07,0,17.08-17.65,17.08-31.23,17.08Z"/>
    <path class="cls-1" d="m410.65,418.04h26.2v4.66h-21.19v13.97h19.7v4.66h-19.7v18.98h-5.01v-42.27Zm61.56,26.15c0,9.2-4.31,17.2-15.94,17.2s-15.94-8-15.94-17.2v-26.15h5.02v25.43c0,6.81,2.51,13.26,10.92,13.26s10.93-6.45,10.93-13.26v-25.43h5.02v26.15Zm7-26.15h6.33l24.49,35.1h.11v-35.1h5.01v42.27h-6.31l-24.49-35.1h-.11v35.1h-5.02v-42.27Zm42.36,0h16.23c8.31,0,20.72,5.55,20.72,21.13s-12.41,21.14-20.72,21.14h-16.23v-42.27Zm5.01,37.61h9.55c9.68,0,17.02-4.9,17.02-16.48s-7.34-16.47-17.02-16.47h-9.55v32.95Zm50.41-37.61h4.73l17.96,42.27h-5.84l-4.31-10.4h-21.13l-4.37,10.4h-5.66l18.62-42.27Zm2.27,6.46h-.13l-8.77,20.76h17.26l-8.36-20.76Zm52.32,2.27c-2.5-3.4-6.51-5.14-10.58-5.14-9.41,0-16.11,8.31-16.11,17.55,0,9.8,6.63,17.55,16.11,17.55,5.14,0,9.25-2.08,12.24-5.91l3.77,3.18c-3.77,5.06-9.24,7.4-16.01,7.4-12.11,0-21.49-9.39-21.49-22.21s8.94-22.21,21.49-22.21c5.73,0,11.35,1.98,14.93,6.62l-4.35,3.18Zm9.09-8.72h5.01v42.27h-5.01v-42.27Zm9.73,21.13c0-12.77,9.25-22.21,22.09-22.21s22.09,9.44,22.09,22.21-9.24,22.21-22.09,22.21-22.09-9.43-22.09-22.21Zm38.8,0c0-9.73-6.81-17.55-16.71-17.55s-16.71,7.82-16.71,17.55,6.8,17.55,16.71,17.55,16.71-7.82,16.71-17.55Zm-14.62-32.73h6.56l-8.53,8.6h-4.24l6.21-8.6Zm24.74,11.6h6.33l24.46,35.1h.11v-35.1h5.03v42.27h-6.33l-24.47-35.1h-.13v35.1h-5.01v-42.27Z"/>
    <path d="m409.93,482.72h30.64c18.96,0,36.19,6.7,36.19,28.3s-19.26,28.59-33.86,28.59h-20.72v46.4h-12.25v-103.29Zm12.25,45.52h20.72c12.24,0,20.71-5.56,20.71-17.08s-8.46-17.07-20.71-17.07h-20.72v34.15Zm505.64-24.22c-6.13-8.3-15.92-12.54-25.84-12.54-23.05,0-39.38,20.28-39.38,42.89,0,23.92,16.18,42.9,39.38,42.9,12.56,0,22.63-5.1,29.91-14.45l9.2,7.73c-9.2,12.41-22.63,18.1-39.11,18.1-29.62,0-52.52-22.91-52.52-54.28s21.88-54.27,52.52-54.27c14.01,0,27.73,4.81,36.48,16.18l-10.64,7.74Zm-102.19-21.29v85.78h-.27l-59.82-85.78h-15.46v91.92h-66.11v-36.77h49.16v-11.39h-49.16v-32.4h52.67v-11.37h-188.52c-5.43-1.7-11.31-2.63-17.54-2.63-31.37,0-53.98,23.04-53.98,54.27s22.61,54.28,53.98,54.28,53.98-23.05,53.98-54.28c0-12.13-3.43-23.02-9.45-31.81v.02c-.09-.14-.17-.27-.26-.41-.41-.59-.85-1.17-1.29-1.75-5.58-6.23-16.94-6.33-16.94-6.33h62.37v91.92h12.27v-91.92h40.42v91.92h90.63v-85.79h.3l59.82,85.79h15.46v-103.29h-12.27Zm-254.21,51.64c0,23.79-16.63,42.9-40.86,42.9s-40.86-19.11-40.86-42.9,16.62-42.89,40.86-42.89,40.86,19.12,40.86,42.89Zm544.65,4.1c16.06-2.48,25.82-12.27,25.82-27.3,0-25.53-21.16-28.44-41.14-28.44h-26.42v91.92h-10.38l-39.09-91.92h-11.52l-40.5,91.92h-10.57v-91.92h-12.25v103.29h31.66l10.66-25.39,4.81-11.38,21.46-50.76h.28l20.43,50.76,4.66,11.38,10.5,25.39h32.13v-46.4h15.76l28,46.4h15.05l-29.34-47.56Zm-18.53-10.22h-10.94v-34.15h17.23c11.95,0,24.94,2.19,24.94,17.07,0,17.08-17.67,17.08-31.23,17.08Z"/>
  </g>
</svg>